<svg width="39" height="44" viewBox="0 0 39 44" fill="none" xmlns="http://www.w3.org/2000/svg">
<path d="M27.0776 42.5053C28.4579 42.5053 29.8296 42.5139 31.2099 42.5053C31.6326 42.5053 31.9863 42.5654 32.1503 43.0121C32.2797 43.3901 32.133 43.6736 31.6585 43.9914C23.0316 43.9914 14.4047 43.9914 5.77786 43.9914C5.54493 43.8454 5.32063 43.6993 5.26024 43.3987C5.16535 42.8918 5.5018 42.5139 6.0798 42.5139C7.52912 42.5053 8.97843 42.5053 10.4277 42.5053C10.5399 42.428 10.6693 42.4108 10.7987 42.4108C13.4385 42.428 16.0697 42.3592 18.7009 42.4022C19.9691 42.385 21.2372 42.385 22.5054 42.4022C23.8771 42.3764 25.2487 42.3936 26.629 42.3936C26.7843 42.3936 26.9396 42.4022 27.0776 42.5053Z" fill="#785353"/>
<path d="M38.56 0.2749C37.0158 1.55487 35.532 2.90356 34.1862 4.39829C31.4428 7.44788 29.2602 10.8583 27.5262 14.5607C25.5162 18.8559 24.1704 23.3659 23.3249 28.0219C23.1352 29.0785 23.0057 30.1351 22.8505 31.2003C22.7728 31.3206 22.8936 31.4494 22.8505 31.5697C22.3415 32.36 21.7376 33.0902 21.2717 33.9063C21.22 34.0008 21.1251 34.164 20.9871 33.9664C20.7886 32.9957 20.8145 32.0078 20.7024 31.0285C20.3745 28.271 19.762 25.5736 18.9252 22.9278C18.8562 22.7216 18.7872 22.524 18.7872 22.3007C18.8821 20.5826 19.2444 18.9075 19.7017 17.2581C20.0812 15.8751 20.6334 14.5607 21.2372 13.2636C21.3063 13.1261 21.358 12.9715 21.5133 12.8942C21.8239 12.3788 22.1258 11.8633 22.445 11.3565C25.1366 7.00118 28.9669 3.96018 33.5737 1.82117C34.9799 1.1683 36.4378 0.635696 37.9389 0.249129C38.0769 0.214767 38.215 0.197586 38.3616 0.163225C38.4565 0.137453 38.56 0.103092 38.56 0.2749Z" fill="#5ABA64"/>
<path d="M18.8821 22.2491C18.9684 22.9621 19.2531 23.615 19.4515 24.3022C20.0208 26.2866 20.4436 28.2882 20.7196 30.3413C20.8835 31.5697 20.9612 32.7981 21.0474 34.0266C21.1682 34.1898 21.0647 34.3272 20.9957 34.4647C19.8224 36.681 19.1495 39.0348 18.9166 41.526C18.908 41.6634 18.908 41.818 18.7354 41.8782C18.5198 41.8438 18.537 41.6634 18.5198 41.5088C18.2523 37.9524 17.2516 34.6107 15.647 31.4323C15.3796 30.8996 15.0086 30.4186 14.8275 29.8344C14.8361 29.654 14.9396 29.4736 14.8447 29.2932C14.2753 21.33 12.1186 13.8649 7.75341 7.02695C8.1675 7.19016 8.41768 7.46506 8.69374 7.697C11.4026 9.95627 13.6887 12.5763 15.5694 15.5572C15.6298 15.6517 15.7074 15.7376 15.7764 15.8235C16.225 16.2788 16.4666 16.8629 16.7685 17.4041C17.4759 18.7099 18.097 20.0586 18.6233 21.4416C18.7268 21.7079 18.7613 21.9914 18.8821 22.2491Z" fill="#68BB6B"/>
<path d="M14.9137 29.8173C15.0949 30.2983 15.3968 30.7193 15.6384 31.1745C16.8893 33.5799 17.7865 36.114 18.2782 38.7856C18.4508 39.722 18.6233 40.6583 18.6319 41.6205C18.6319 41.7064 18.6405 41.7923 18.7182 41.8524C18.8821 42.0758 18.8821 42.2905 18.7182 42.5139C15.9576 42.5396 13.197 42.5568 10.4364 42.5139C10.4364 42.4881 10.445 42.4709 10.4623 42.4537C10.6262 42.2991 10.8418 42.3335 11.0316 42.3335C12.0927 42.3335 13.1538 42.3335 14.2149 42.3335C14.6635 42.3335 14.6981 42.2905 14.5687 41.8696C14.1459 40.4608 13.5075 39.1636 12.5413 38.0383C12.4378 37.918 12.3257 37.8063 12.3343 37.6345C12.2135 36.2944 11.9202 34.9887 11.5751 33.6915C10.5571 29.8516 8.90941 26.3382 6.36448 23.28C5.48454 22.2234 4.50107 21.2612 3.38821 20.4108C4.35442 20.4537 7.84831 22.3522 9.84112 24.0445C11.7563 25.6681 13.4299 27.5064 14.7412 29.6455C14.8275 29.6798 14.862 29.7571 14.9137 29.8173Z" fill="#6EC277"/>
<path d="M18.8821 22.2491C18.537 21.8368 18.468 21.2956 18.2696 20.8231C17.5794 19.148 16.7771 17.533 15.8368 15.9781C15.8109 15.9352 15.8023 15.8751 15.785 15.8149C16.2423 14.4834 16.4666 13.1004 16.5615 11.7001C16.8375 7.84303 16.225 4.09762 15.1035 0.41234C15.0776 0.317846 15.0604 0.223351 15.0086 0.0343628C18.5715 3.68528 20.7455 7.92035 21.4874 12.8684C20.9871 14.0539 20.4263 15.205 20.0381 16.4334C19.4515 18.3405 19.0201 20.2647 18.8821 22.2491Z" fill="#91CF96"/>
<path d="M12.3084 37.6259C13.4817 38.8544 14.215 40.3233 14.6981 41.9297C14.8533 42.4451 14.8533 42.4451 14.3271 42.4537C13.0331 42.4537 11.739 42.4537 10.445 42.4537C10.2983 40.0656 9.56506 37.9094 7.93458 36.0968C7.64126 35.779 7.31344 35.5127 6.98562 35.2292C7.0115 35.023 7.14953 35.1347 7.24443 35.1433C8.98706 35.3581 10.5226 36.0281 11.8339 37.1878C11.9978 37.3253 12.1531 37.4713 12.3084 37.6259Z" fill="#8CD19A"/>
<path d="M14.9137 29.8173C14.8275 29.7915 14.7671 29.7314 14.7412 29.6455C14.8879 29.5595 14.7843 29.4049 14.8361 29.2932C14.9569 29.4565 14.8965 29.6455 14.9137 29.8173Z" fill="#ACD9AE"/>
<path d="M18.7096 42.5053C18.7096 42.2819 18.7096 42.0672 18.7096 41.8438C18.8993 41.5346 18.8131 41.1738 18.8562 40.8473C19.0719 39.1121 19.5291 37.4455 20.1934 35.8391C20.4436 35.2206 20.7541 34.6279 21.0388 34.0265C21.5823 33.1675 22.1344 32.3256 22.7642 31.5267C22.816 31.4666 22.8591 31.3979 22.9367 31.3549C25.3436 28.606 28.2768 26.6474 31.8052 25.565C31.486 25.8485 31.1582 26.1148 30.8562 26.4069C28.8203 28.3569 27.5349 30.7536 26.5687 33.3565C26.1718 34.4131 25.8785 35.5041 25.6024 36.5951C25.6111 36.7583 25.5421 36.8871 25.4213 37.0074C23.972 38.3905 23.0661 40.0656 22.7124 42.0414C22.6866 42.2132 22.6607 42.385 22.514 42.5053C21.2459 42.5053 19.9777 42.5053 18.7096 42.5053Z" fill="#50AF5C"/>
<path d="M22.5054 42.5053C22.7556 40.8989 23.2904 39.4127 24.2912 38.1156C24.6017 37.7118 24.9209 37.2995 25.3091 36.9645C25.4299 36.8614 25.5162 36.7411 25.5938 36.6123C25.7405 36.7068 25.7922 36.5521 25.8699 36.5006C27.578 35.2034 29.5363 34.5935 31.6413 34.3702C31.7362 34.3616 31.8569 34.2499 31.8828 34.4475C30.6319 35.0574 29.683 36.0023 28.941 37.1449C27.8713 38.777 27.2588 40.581 27.0776 42.5139C25.5507 42.5053 24.0323 42.5053 22.5054 42.5053Z" fill="#68BB6B"/>
<path d="M19 6C8.52358 6 0 14.523 0 25C0 35.477 8.523 44 19 44C29.477 44 38 35.477 38 25C38 14.523 29.4764 6 19 6ZM3.47996 25C3.47996 16.4422 10.4422 9.47996 19 9.47996C22.8558 9.47996 26.3856 10.8969 29.1029 13.2337L7.23368 35.1029C4.89688 32.3856 3.47996 28.8558 3.47996 25ZM19 40.52C15.5502 40.52 12.3608 39.3873 9.78101 37.4762L31.4757 15.7816C33.3867 18.3614 34.5195 21.5508 34.5195 25.0006C34.52 33.5578 27.5578 40.52 19 40.52Z" fill="#C73838"/>
</svg>
