<svg width="46" height="46" viewBox="0 0 46 46" fill="none" xmlns="http://www.w3.org/2000/svg">
<g clip-path="url(#clip0_1_773)">
<path d="M14.8759 22.1203C15.72 20.758 16.7897 19.6215 18.1519 18.7774C18.4611 18.5852 18.4193 18.4264 18.2438 18.1673C16.8315 16.17 16.7228 14.0556 17.7675 11.8744C17.8343 11.7407 17.9764 11.5986 17.8343 11.4565C17.5 11.1222 17.5585 10.696 17.5585 10.2949C17.5585 8.74045 17.5669 7.17766 17.5585 5.63158C17.5502 4.57022 16.9735 3.77629 16.0375 3.47544C14.9511 3.12443 13.7477 3.44201 13.1459 4.2443C12.6362 4.92123 12.5442 5.6483 12.8702 6.4088C13.2128 7.18602 13.8229 7.64566 14.6837 7.72088C14.9595 7.74595 15.2352 7.72087 15.511 7.74595C16.096 7.77937 16.4972 8.19723 16.4805 8.71538C16.4637 9.23352 16.0877 9.59288 15.5194 9.62631C13.7895 9.73495 12.3102 9.25859 11.3575 7.72088C10.4215 6.25002 10.4884 4.74572 11.4077 3.27486C11.4244 3.24144 11.416 3.19965 11.4244 3.15786C11.7336 2.84865 12.0344 2.54779 12.3437 2.23857C13.3047 1.64522 14.3494 1.41957 15.486 1.48643C17.6839 1.61179 19.3386 3.21636 19.4305 5.4143C19.4807 6.65116 19.4556 7.89638 19.4473 9.14159C19.4473 9.35888 19.3888 9.56781 19.3303 9.94388C21.8458 8.33095 24.1941 8.30588 26.5425 9.83524C26.7013 9.65974 26.6177 9.45917 26.6261 9.26695C26.6428 7.91309 26.5759 6.54251 26.6762 5.18865C26.8517 2.67315 29.2001 1.07693 31.8911 1.56165C34.2311 1.9795 35.727 4.31115 35.1253 6.60102C34.5988 8.64852 32.5095 9.98567 30.4118 9.62631C29.8937 9.54273 29.6012 9.21681 29.6012 8.69866C29.6012 8.18052 29.9104 7.85459 30.4202 7.77937C30.7127 7.73759 31.0136 7.77102 31.3061 7.74595C32.4844 7.65402 33.3619 6.70966 33.3619 5.55637C33.3619 4.41979 32.4677 3.47544 31.2894 3.38351C29.4842 3.24979 28.5231 4.14401 28.5148 5.97423C28.5148 7.41166 28.5148 8.84909 28.5148 10.2865C28.5064 10.696 28.5733 11.1139 28.2306 11.4565C28.0802 11.607 28.2306 11.7407 28.2975 11.8744C29.3505 14.064 29.2502 16.17 27.8378 18.1673C27.6623 18.4097 27.5955 18.5768 27.9214 18.769C29.2753 19.6215 30.345 20.758 31.1974 22.1119C31.0971 22.3292 30.8798 22.3292 30.696 22.3459C29.2335 22.5548 27.9548 23.1482 26.9603 24.2597C26.8601 24.3767 26.7347 24.4853 26.601 24.5522C24.9463 24.8029 23.2748 24.8531 21.6118 24.7611C20.9098 24.7277 20.191 24.7444 19.5057 24.5606C19.2968 24.4519 19.1297 24.2681 18.9709 24.1093C18.0432 23.1148 16.8816 22.605 15.5695 22.3793C15.3188 22.3459 15.043 22.3877 14.8759 22.1203Z" fill="#9A7863"/>
<path d="M28.8239 35.801C29.3087 36.1185 29.785 36.4278 30.2781 36.737C30.2279 38.141 29.4842 39.2191 28.6317 40.2386C27.1107 42.0605 25.2972 43.5564 23.4001 44.9688C23.1996 45.1192 22.9906 45.2111 22.765 45.0356C20.4417 43.2806 18.1686 41.4755 16.5473 39.0018C16.096 38.3165 15.8202 37.5727 15.8035 36.737C16.2798 36.4278 16.7478 36.1269 17.2326 35.826C17.4833 35.8093 17.6838 35.9263 17.8928 36.035C21.3777 37.9655 24.8543 37.932 28.3141 35.9598C28.4646 35.8762 28.5983 35.6923 28.8239 35.801Z" fill="#785353"/>
<path d="M26.4589 24.5104C25.8321 25.5718 25.339 26.6833 25.2137 27.9452C25.1301 28.7642 25.2972 29.5331 25.3808 30.3354C24.754 31.0458 23.9016 31.2296 23.0408 31.2213C22.18 31.2296 21.3192 31.0374 20.7008 30.3354C21.1688 28.2461 20.7509 26.3072 19.6144 24.5188C21.8959 24.711 24.1774 24.7194 26.4589 24.5104Z" fill="#785353"/>
<path d="M20.6924 30.327C21.2524 30.6028 21.7789 30.9288 22.414 31.029C23.5005 31.2129 24.4532 30.8619 25.3725 30.327C25.7903 31.6642 26.3085 32.9345 27.1776 34.0543C27.6707 34.6978 28.3058 35.1993 28.824 35.801C24.963 38.2413 21.0936 38.2162 17.2159 35.8261C18.2104 34.8148 19.2299 33.812 19.8567 32.4999C20.2077 31.7979 20.4167 31.0541 20.6924 30.327Z" fill="#9A7863"/>
<path d="M7.47639 36.5113C7.22568 36.2606 6.97496 36.0099 6.72425 35.7592C5.31189 34.046 4.99432 32.0737 5.43725 29.9426C6.19775 26.207 9.29825 23.0396 13.1175 22.3292C13.7526 22.2122 14.4392 21.979 15.0743 21.9122C15.0743 21.9122 21.1164 20.1723 22.3784 21.6014C22.8882 21.9607 21.8345 26.2635 21.8345 26.2635C21.8345 26.2635 21.3576 28.9314 20.9649 30.444C20.4133 32.667 19.2099 34.4722 17.4716 35.9263C16.9392 36.2872 15.9589 36.7537 15.9589 36.7537C14.4797 37.5476 12.9169 37.9906 11.212 37.907C9.80804 37.8234 8.56283 37.3972 7.47639 36.5113Z" fill="#C8D4E4"/>
<path d="M38.9167 36.5113C39.1674 36.2606 39.4181 36.0099 39.6688 35.7592C41.0812 34.046 41.3987 32.0737 40.9558 29.9426C40.1953 26.207 37.0948 23.0396 33.2756 22.3292C32.6404 22.2122 31.9539 21.979 31.3187 21.9122C31.3187 21.9122 25.2766 20.1723 24.0147 21.6014C23.5049 21.9607 24.5586 26.2635 24.5586 26.2635C24.5586 26.2635 25.0354 28.9314 25.4282 30.444C25.9798 32.667 27.1832 34.4722 28.9215 35.9263C29.4539 36.2872 30.4341 36.7537 30.4341 36.7537C31.9134 37.5476 33.4761 37.9906 35.181 37.907C36.585 37.8234 37.8302 37.3972 38.9167 36.5113Z" fill="#C8D4E4"/>
</g>
<g clip-path="url(#clip1_1_773)">
<path d="M23 4C12.5236 4 4 12.523 4 23C4 33.477 12.523 42 23 42C33.477 42 42 33.477 42 23C42 12.523 33.4764 4 23 4ZM7.47996 23C7.47996 14.4422 14.4422 7.47996 23 7.47996C26.8558 7.47996 30.3856 8.89688 33.1029 11.2337L11.2337 33.1029C8.89688 30.3856 7.47996 26.8558 7.47996 23ZM23 38.52C19.5502 38.52 16.3608 37.3873 13.781 35.4762L35.4757 13.7816C37.3867 16.3614 38.5195 19.5508 38.5195 23.0006C38.52 31.5578 31.5578 38.52 23 38.52Z" fill="#C73838"/>
</g>
<defs>
<clipPath id="clip0_1_773">
<rect width="46" height="46" fill="white"/>
</clipPath>
<clipPath id="clip1_1_773">
<rect width="38" height="38" fill="white" transform="translate(4 4)"/>
</clipPath>
</defs>
</svg>
