<svg width="91" height="115" viewBox="0 0 91 115" fill="none" xmlns="http://www.w3.org/2000/svg">
<g id="Frame" clip-path="url(#clip0_1_546)">
<g id="X7wVKy.tif_1_">
<g id="Group">
<path id="Vector" d="M47.7304 114.127C62.2775 107.503 76.8246 100.879 91.3718 94.2557C92.4604 93.4569 92.5115 92.4566 91.9067 91.3508C91.4621 90.3742 91.0047 89.3697 90.56 88.3931C89.4293 85.9097 88.3113 83.4542 87.1805 80.9709C85.1986 76.618 83.2166 72.2651 81.2347 67.9123C79.7863 64.7313 78.338 61.5504 76.8896 58.3695C71.1343 45.7294 65.379 33.0893 59.6237 20.4493C58.5 19.984 57.4246 19.3283 56.1149 19.7899C55.9975 21.0898 54.9649 21.4925 53.9858 21.9383C41.9844 27.4028 30.011 32.8546 18.0096 38.3191C16.9745 38.7904 15.9547 39.221 14.9705 39.8039C14.1592 40.1733 13.1522 40.2613 12.8645 41.3355C14.178 44.8137 15.8831 48.1135 17.4051 51.5304C18.3046 53.5801 19.2321 55.617 20.1875 57.6412C20.3044 57.8238 20.4519 57.9251 20.6553 58.0009C21.5833 58.1847 22.3591 57.663 23.1144 57.3191C29.9251 54.2518 36.7383 51.1159 43.5363 48.0206C44.0399 47.7913 44.5714 47.5493 45.1004 47.3758C45.726 47.192 46.2014 47.3461 46.5521 47.8939C46.8241 48.3427 47.0274 48.7892 47.2433 49.2635C52.4269 60.648 57.6232 72.0603 62.8068 83.4447C63.8486 85.7327 63.8028 85.8547 61.5368 86.8864C54.5989 90.0454 47.6331 93.2171 40.6952 96.376C39.9119 96.7327 38.9964 96.9474 38.6859 97.8973C39.1176 99.5873 39.9969 101.073 40.7084 102.636C42.1288 105.83 43.6051 108.998 45.0534 112.179C45.4878 113.43 46.0927 114.535 47.7304 114.127Z" fill="#BCD5D1"/>
<path id="Vector_2" d="M20.4138 57.8414C26.5121 71.2349 32.6231 84.6562 38.7214 98.0497C46.8343 94.3557 54.8937 90.6187 63.0319 86.9806C64.3747 86.3692 64.6012 85.8281 63.9787 84.4608C58.3453 72.2369 52.7552 59.9596 47.2337 47.6847C46.6239 46.3454 46.0544 46.133 44.7115 46.7445C36.6521 50.4815 28.5266 54.1475 20.4138 57.8414Z" fill="#DEF4EF"/>
<path id="Vector_3" d="M38.0422 14.8131C37.3786 14.5425 37.2644 13.9208 37.0103 13.3627C35.041 9.03778 33.0718 4.71281 31.1152 0.41575C26.2755 2.61938 21.4078 4.83574 16.5681 7.03937C17.4193 8.90887 18.2705 10.7784 19.1091 12.62C20.2201 13.0573 21.0976 12.3883 21.9547 11.897C22.8525 11.4208 23.6612 11.12 24.3678 12.0784C24.9168 12.839 24.4918 13.9084 23.4058 14.6388C22.5461 15.1986 21.3052 15.292 20.8903 16.4578C21.6373 18.1727 22.4123 19.8748 23.1593 21.5896C23.6982 22.2538 24.3543 21.9887 24.9698 21.7085C28.9957 19.9428 32.9961 18.1213 36.9712 16.244C37.5713 16.0044 38.2021 15.6835 38.0422 14.8131Z" fill="#DEF4EF"/>
<path id="Vector_4" d="M20.9027 16.4859C21.9658 16.0018 23.0949 15.5888 24.0792 15.0059C25.3305 14.2677 25.6896 12.7567 25.0415 11.7043C24.3781 10.6925 23.1348 10.4838 21.9674 11.1838L19.0578 12.5086C19.6422 13.7921 20.2776 15.1872 20.9027 16.4859Z" fill="#BDD5D1"/>
<path id="Vector_5" d="M38.0421 14.813L23.144 21.6301C21.5468 22.4247 19.8455 23.0646 18.4287 24.1813C13.7843 27.7783 12.3274 35.1118 15.1864 40.2781C21.552 37.346 27.9024 34.4546 34.2681 31.5225C41.3738 28.2871 48.4948 25.011 55.6259 21.8315C56.8288 21.2837 57.2333 20.7627 56.4785 19.6241C53.2888 14.8442 48.9999 12.2492 43.0724 13.0279C41.2898 13.2669 39.7282 14.2137 38.0421 14.813Z" fill="#F39D00"/>
</g>
</g>
</g>
<defs>
<clipPath id="clip0_1_546">
<rect width="51.7639" height="110.496" fill="white" transform="matrix(-0.9101 0.414388 0.414388 0.9101 47.3281 -7)"/>
</clipPath>
</defs>
</svg>
