<svg width="47" height="47" viewBox="0 0 47 47" fill="none" xmlns="http://www.w3.org/2000/svg">
<path d="M0.0132446 29.7852C0.0132446 29.7455 0.0132446 29.6926 0.0132446 29.6529C0.220865 28.8986 0.233841 28.1047 0.856701 27.4564C2.03754 26.2258 3.76338 25.9611 5.16482 26.5698C7.40971 27.5622 8.6165 26.5434 9.79734 25.4848C10.1088 25.2069 10.0958 24.8232 10.0828 24.4395C10.005 22.4547 10.3294 20.536 11.0171 18.6703C11.5362 17.281 10.7057 16.0107 9.25234 15.9445C8.30507 15.9048 7.48757 15.6137 6.82578 14.8727C5.73577 13.6554 5.87851 11.7765 7.17614 10.7179C8.40888 9.71227 10.3423 9.97691 11.2118 11.2472C11.3934 11.5251 11.5362 11.8162 11.6659 12.1205C11.9254 12.7292 12.3537 13.1923 12.9246 13.4966C13.5864 13.8539 14.2222 13.8936 14.8451 13.3511C15.5977 12.6895 16.4542 12.147 17.3365 11.6971C17.8296 11.4457 18.0892 11.0752 18.167 10.5194C18.4006 8.91835 18.1021 7.58192 16.7137 6.56306C15.0527 5.37218 14.9359 2.91103 16.2465 1.30996C17.0251 0.370493 18.0113 0.158781 19.0883 0.0132294C19.2181 0.0132294 19.3479 0.0132294 19.4776 0.0132294C19.7372 0.145549 20.0356 0.119085 20.2951 0.119085C21.7614 0.185245 22.6179 1.08502 23.1499 2.32883C23.6819 3.58586 23.5651 4.85613 22.6957 5.94116C21.7485 7.1188 21.476 8.07151 22.7995 9.85782C23.0721 10.2283 23.4354 10.3739 23.8636 10.3739C25.7971 10.3739 27.5618 10.9825 29.2617 11.8426C29.7159 12.0808 30.1311 12.0676 30.5594 11.8162C31.2082 11.4457 31.8051 11.0222 32.363 10.5194C32.8302 10.1092 32.9989 9.56672 33.0767 8.94482C33.3233 6.90709 35.2697 5.70298 37.0215 6.51013C38.0856 6.99972 38.7214 7.84656 38.7474 9.07714C38.7863 10.3474 38.2153 11.3398 37.0994 11.75C35.5552 12.3057 34.7896 13.5098 34.1019 14.8463C33.8164 15.3888 33.8164 15.8784 34.1667 16.3944C34.7896 17.3074 35.1789 18.3395 35.5812 19.3584C35.9185 20.2185 36.4246 20.5493 37.32 20.536C38.3451 20.5096 39.1626 20.1126 39.7984 19.2128C40.8106 17.7705 42.6013 17.1751 44.1585 17.6515C45.9622 18.2072 46.9094 19.4907 46.9354 21.449C46.9354 21.7269 46.9354 22.0048 46.9354 22.2694C46.9743 24.0028 46.1828 25.1937 44.6386 25.8156C43.0036 26.4772 41.4983 26.2258 40.2267 24.929C38.8382 23.5 37.9039 23.9631 36.5933 24.5718C36.3208 24.7041 36.204 24.9687 36.1651 25.2731C36.0224 26.3449 35.7499 27.3902 35.3995 28.4091C35.1529 29.15 35.2957 29.547 35.9315 29.9969C36.5803 30.46 37.307 30.5923 38.0726 30.6188C39.6298 30.6585 40.8365 31.9552 40.8365 33.5298C40.8365 34.8001 40.032 35.8984 38.8122 36.2953C37.6833 36.6658 36.3468 36.2159 35.685 35.1441C35.1789 34.3238 34.7118 33.4901 33.9072 32.9079C33.2844 32.4448 33.0897 32.4316 32.5317 32.9873C31.6753 33.8342 30.767 34.6149 29.7159 35.1971C29.119 35.5279 28.8595 36.0174 28.7946 36.6791C28.6389 38.333 29.0671 39.7753 30.3128 40.9133C31.2211 41.7337 31.6883 42.7261 31.6494 43.9963C31.6104 45.2004 30.6242 46.9074 28.9762 46.8809C28.8854 46.8809 28.8076 46.8809 28.7297 46.9471C28.3404 46.9471 27.9511 46.9471 27.5618 46.9471C25.1483 46.3913 24.214 44.605 25.1093 42.1968C25.7322 40.5163 25.3688 38.9549 24.6033 37.42C24.4346 37.0892 24.1361 36.9569 23.7987 36.9701C22.6957 36.9834 21.5928 36.9305 20.5157 36.7055C20.0745 36.6129 19.7242 36.8378 19.4127 37.1422C18.1151 38.3992 17.5571 39.987 17.3885 41.7469C17.3495 42.1836 17.2976 42.6202 17.2068 43.0569C16.9343 44.3668 15.5199 45.4122 14.2741 45.2534C12.8338 45.0814 11.7438 43.8772 11.6919 42.4879C11.6529 41.3499 12.1201 40.5163 13.0025 39.8547C14.5856 38.6771 15.2863 37.0363 15.3252 35.078C15.3382 34.5884 15.1565 34.1914 14.7802 33.8606C13.7681 32.9873 12.9116 31.9685 12.1979 30.8305C11.8476 30.2748 11.4194 30.0366 10.7835 30.1954C10.5759 30.2483 10.3553 30.2483 10.1347 30.2351C8.68138 30.1424 7.65626 30.7776 6.96852 32.0743C6.39756 33.1461 5.46327 33.7415 4.29541 33.9797C2.10242 34.4164 0.194912 32.8682 0.143007 30.5923C0.0521734 30.3277 0.155983 30.0498 0.0132446 29.7852Z" fill="#F6BD57"/>
<path d="M17.479 17.3471C18.8545 17.3604 19.8796 18.4189 19.8666 19.8347C19.8666 21.2109 18.7377 22.3753 17.4012 22.3753C16.0906 22.3753 14.9486 21.2109 14.9357 19.8877C14.9357 18.4983 16.0906 17.3339 17.479 17.3471Z" fill="#F4A34E"/>
<path d="M29.7416 20.4037C30.7278 20.4037 31.6361 21.3432 31.6491 22.3621C31.6621 23.4074 30.7148 24.3601 29.7026 24.3468C28.7035 24.3204 27.8081 23.4074 27.7951 22.3885C27.7822 21.3564 28.7164 20.4037 29.7416 20.4037Z" fill="#F4A34E"/>
<path d="M21.9428 26.0008C21.9428 26.8874 21.2421 27.6019 20.3857 27.6019C19.5293 27.6019 18.7507 26.8212 18.7507 25.9611C18.7507 25.0878 19.5033 24.3601 20.4116 24.3733C21.2292 24.3733 21.9299 25.1143 21.9428 26.0008Z" fill="#F4A34E"/>
<path d="M25.9266 16.9766C25.9136 17.7044 25.2518 18.3395 24.5251 18.3395C23.7985 18.3395 23.1626 17.6779 23.1756 16.9369C23.1886 16.1959 23.8244 15.5343 24.5381 15.5343C25.3037 15.5343 25.9525 16.2092 25.9266 16.9766Z" fill="#F4A34E"/>
<path d="M25.4594 32.5639C24.6679 32.5639 24.1488 32.0214 24.1488 31.1878C24.1488 30.3674 24.7327 29.7852 25.5373 29.7984C26.238 29.8117 26.8349 30.4468 26.8479 31.1613C26.8738 31.9155 26.225 32.5639 25.4594 32.5639Z" fill="#F4A34E"/>
<path d="M31.8307 3.5197C31.8307 4.56503 31.0003 5.4251 29.9881 5.39864C29.0019 5.37218 28.1844 4.53856 28.1844 3.53293C28.1844 2.50084 29.0409 1.64076 30.04 1.65399C31.0392 1.66722 31.8307 2.50084 31.8307 3.5197Z" fill="#F6BD57"/>
<path d="M7.3186 6.35134C5.80038 6.33811 4.55466 5.06784 4.55466 3.5197C4.55466 1.97156 5.81335 0.688057 7.3186 0.701289C8.82384 0.701289 10.0825 1.98479 10.0955 3.53293C10.1085 5.05461 8.82384 6.36458 7.3186 6.35134Z" fill="#F6BD57"/>
<path d="M4.78824 39.4975C4.78824 38.4521 5.61872 37.5921 6.63087 37.6185C7.61706 37.6317 8.43457 38.4786 8.44754 39.4842C8.46052 40.5296 7.61706 41.3632 6.59194 41.3499C5.56681 41.3367 4.78824 40.5296 4.78824 39.4975Z" fill="#F6BD57"/>
<path d="M39.0585 45.1475C37.5792 45.1475 36.4373 43.9699 36.4373 42.4614C36.4503 40.953 37.6052 39.7886 39.0845 39.815C40.5378 39.8283 41.6668 40.9927 41.6668 42.4747C41.6927 43.9699 40.5378 45.1475 39.0585 45.1475Z" fill="#F6BD57"/>
<g clip-path="url(#clip0_1_784)">
<path d="M22.7295 3.85246C12.3209 3.85246 3.85246 12.3203 3.85246 22.7295C3.85246 33.1387 12.3203 41.6066 22.7295 41.6066C33.1387 41.6066 41.6066 33.1387 41.6066 22.7295C41.6066 12.3203 33.1381 3.85246 22.7295 3.85246ZM7.3099 22.7295C7.3099 14.2271 14.2271 7.3099 22.7295 7.3099C26.5604 7.3099 30.0674 8.71766 32.767 11.0393L11.0393 32.767C8.71766 30.0674 7.3099 26.5604 7.3099 22.7295ZM22.7295 38.1491C19.302 38.1491 16.1333 37.0237 13.5702 35.125L35.1244 13.5708C37.0231 16.1339 38.1485 19.3026 38.1485 22.7301C38.1491 31.2319 31.2319 38.1491 22.7295 38.1491Z" fill="#C73838"/>
</g>
<defs>
<clipPath id="clip0_1_784">
<rect width="37.7541" height="37.7541" fill="white" transform="translate(3.85246 3.85246)"/>
</clipPath>
</defs>
</svg>
