<svg width="46" height="57" viewBox="0 0 46 57" fill="none" xmlns="http://www.w3.org/2000/svg">
<g id="Frame" clip-path="url(#clip0_1_740)">
<g id="TolAcv.tif_1_">
<g id="Group">
<path id="Vector" d="M30.7659 55.0636C32.5296 55.0636 34.2823 55.0748 36.046 55.0636C36.5862 55.0636 37.0381 55.1416 37.2476 55.7202C37.4129 56.2099 37.2255 56.5771 36.6192 56.9889C25.596 56.9889 14.5727 56.9889 3.54949 56.9889C3.25186 56.7997 2.96526 56.6105 2.88809 56.221C2.76684 55.5644 3.19675 55.0748 3.9353 55.0748C5.78721 55.0636 7.63911 55.0636 9.49102 55.0636C9.63432 54.9635 9.79967 54.9412 9.96502 54.9412C13.3381 54.9635 16.7002 54.8745 20.0623 54.9301C21.6827 54.9079 23.3031 54.9079 24.9236 54.9301C26.6763 54.8967 28.429 54.919 30.1927 54.919C30.3911 54.919 30.5895 54.9301 30.7659 55.0636Z" fill="#785353"/>
<path id="Vector_2" d="M45.4378 0.356113C43.4647 2.01425 41.5687 3.76142 39.849 5.69778C36.3436 9.64838 33.5548 14.0664 31.3391 18.8628C28.7707 24.427 27.0511 30.2694 25.9708 36.3011C25.7283 37.6699 25.5629 39.0387 25.3645 40.4186C25.2653 40.5744 25.4196 40.7413 25.3645 40.8971C24.7141 41.9209 23.9425 42.8668 23.3472 43.9241C23.2811 44.0465 23.1598 44.2579 22.9835 44.0019C22.7299 42.7444 22.763 41.4647 22.6197 40.196C22.2008 36.6238 21.4182 33.1294 20.3489 29.7019C20.2607 29.4348 20.1725 29.1788 20.1725 28.8895C20.2938 26.6638 20.7568 24.4938 21.341 22.3571C21.826 20.5654 22.5315 18.8627 23.3031 17.1824C23.3913 17.0043 23.4575 16.804 23.6559 16.7038C24.0527 16.0361 24.4385 15.3684 24.8464 14.7118C28.2857 9.0697 33.18 5.13022 39.0664 2.35924C40.8632 1.51347 42.7261 0.823509 44.6442 0.322728C44.8205 0.278214 44.9969 0.255957 45.1843 0.211443C45.3055 0.178058 45.4378 0.133544 45.4378 0.356113Z" fill="#79C800"/>
<path id="Vector_3" d="M20.2938 28.8227C20.404 29.7464 20.7678 30.5922 21.0213 31.4824C21.7489 34.0531 22.289 36.646 22.6417 39.3057C22.8512 40.8971 22.9504 42.4885 23.0606 44.0798C23.215 44.2913 23.0827 44.4693 22.9945 44.6474C21.4953 47.5186 20.6355 50.5677 20.3379 53.795C20.3269 53.9731 20.3269 54.1734 20.1064 54.2513C19.8308 54.2068 19.8529 53.9731 19.8308 53.7727C19.4891 49.1656 18.2104 44.8366 16.1601 40.7191C15.8184 40.0291 15.3444 39.4059 15.1129 38.6492C15.1239 38.4155 15.2562 38.1818 15.1349 37.9481C14.4074 27.632 11.6516 17.9613 6.07381 9.10309C6.60292 9.31453 6.9226 9.67064 7.27534 9.97111C10.7366 12.8979 13.6578 16.2921 16.0609 20.1537C16.138 20.2761 16.2372 20.3874 16.3254 20.4986C16.8986 21.0884 17.2073 21.8452 17.5931 22.5463C18.497 24.2378 19.2907 25.985 19.9631 27.7767C20.0954 28.1216 20.1395 28.4889 20.2938 28.8227Z" fill="#79C800"/>
<path id="Vector_4" d="M15.2231 38.6269C15.4546 39.2501 15.8404 39.7954 16.1491 40.3852C17.7474 43.5012 18.8938 46.7841 19.5222 50.245C19.7426 51.458 19.9631 52.671 19.9741 53.9174C19.9741 54.0287 19.9851 54.14 20.0844 54.2179C20.2938 54.5072 20.2938 54.7855 20.0844 55.0748C16.5569 55.1082 13.0295 55.1304 9.50204 55.0748C9.50204 55.0414 9.51306 55.0192 9.53511 54.9969C9.74455 54.7966 10.0201 54.8411 10.2626 54.8411C11.6185 54.8411 12.9744 54.8411 14.3302 54.8411C14.9034 54.8411 14.9475 54.7855 14.7822 54.2402C14.242 52.4151 13.4263 50.7347 12.1917 49.2769C12.0594 49.1211 11.9161 48.9764 11.9272 48.7538C11.7728 47.0178 11.398 45.3263 10.9571 43.6459C9.65636 38.6714 7.55092 34.1199 4.29907 30.1582C3.1747 28.7894 1.91805 27.543 0.496048 26.4413C1.73065 26.4969 6.19507 28.9563 8.74144 31.1486C11.1886 33.2519 13.3271 35.6334 15.0026 38.4044C15.1129 38.4489 15.157 38.549 15.2231 38.6269Z" fill="#79C800"/>
<path id="Vector_5" d="M20.2938 28.8227C19.8529 28.2886 19.7647 27.5875 19.5111 26.9754C18.6293 24.8054 17.6041 22.7132 16.4026 20.699C16.3695 20.6433 16.3585 20.5654 16.3365 20.4875C16.9207 18.7626 17.2073 16.9709 17.3285 15.157C17.6813 10.1603 16.8986 5.30829 15.4656 0.534178C15.4325 0.411765 15.4105 0.289351 15.3444 0.0445251C19.897 4.77412 22.6748 10.2605 23.6228 16.6705C22.9835 18.2062 22.267 19.6974 21.7709 21.2888C21.0213 23.7593 20.4702 26.2521 20.2938 28.8227Z" fill="#79C800"/>
<path id="Vector_6" d="M11.8941 48.7427C13.3932 50.3341 14.3302 52.237 14.9475 54.318C15.1459 54.9858 15.1459 54.9858 14.4735 54.9969C12.82 54.9969 11.1666 54.9969 9.51306 54.9969C9.32567 51.9032 8.38869 49.1099 6.3053 46.7618C5.93051 46.3501 5.51163 46.0051 5.09274 45.6378C5.12581 45.3708 5.30218 45.5154 5.42344 45.5266C7.65014 45.8048 9.61227 46.6728 11.2878 48.1751C11.4972 48.3532 11.6957 48.5424 11.8941 48.7427Z" fill="#79C800"/>
<path id="Vector_7" d="M15.2231 38.6269C15.1129 38.5935 15.0357 38.5156 15.0026 38.4043C15.19 38.293 15.0578 38.0927 15.1239 37.9481C15.2782 38.1595 15.2011 38.4043 15.2231 38.6269Z" fill="#79C800"/>
<path id="Vector_8" d="M20.0733 55.0636C20.0733 54.7743 20.0733 54.4961 20.0733 54.2068C20.3158 53.8061 20.2056 53.3387 20.2607 52.9159C20.5363 50.6679 21.1205 48.509 21.9693 46.428C22.289 45.6267 22.6858 44.8588 23.0496 44.0799C23.7441 42.967 24.4496 41.8764 25.2543 40.8415C25.3204 40.7636 25.3755 40.6745 25.4747 40.6189C28.5502 37.0578 32.2981 34.5205 36.8066 33.1183C36.3988 33.4856 35.9799 33.8305 35.5941 34.2089C32.9926 36.7351 31.3501 39.8399 30.1155 43.2118C29.6084 44.5806 29.2336 45.9939 28.8809 47.4073C28.8919 47.6187 28.8037 47.7856 28.6494 47.9414C26.7975 49.7331 25.6401 51.9032 25.1881 54.4627C25.155 54.6853 25.122 54.9078 24.9346 55.0636C23.3142 55.0636 21.6938 55.0636 20.0733 55.0636Z" fill="#79C800"/>
<path id="Vector_9" d="M24.9236 55.0637C25.2432 52.9826 25.9267 51.0574 27.2054 49.377C27.6022 48.854 28.0101 48.3198 28.5061 47.8858C28.6604 47.7523 28.7707 47.5965 28.8699 47.4295C29.0573 47.552 29.1234 47.3516 29.2226 47.2849C31.4052 45.6045 33.9075 44.8144 36.5972 44.525C36.7184 44.5139 36.8728 44.3692 36.9058 44.6252C35.3075 45.4153 34.0949 46.6394 33.1469 48.1195C31.78 50.2339 30.9974 52.5709 30.7659 55.0748C28.8148 55.0637 26.8747 55.0637 24.9236 55.0637Z" fill="#79C800"/>
</g>
</g>
</g>
<defs>
<clipPath id="clip0_1_740">
<rect width="46" height="57" fill="white"/>
</clipPath>
</defs>
</svg>
