<svg width="60" height="60" viewBox="0 0 60 60" fill="none" xmlns="http://www.w3.org/2000/svg">
<g id="&#208;&#188;&#208;&#190;&#209;&#136;&#208;&#186;&#208;&#176;" clip-path="url(#clip0_1_765)">
<path id="Vector" d="M19.4033 28.8525C20.5043 27.0757 21.8996 25.5932 23.6764 24.4923C24.0797 24.2416 24.0252 24.0344 23.7963 23.6965C21.9541 21.0913 21.8124 18.3334 23.1749 15.4883C23.2621 15.3139 23.4475 15.1286 23.2621 14.9433C22.8261 14.5073 22.9024 13.9513 22.9024 13.4281C22.9024 11.4006 22.9133 9.36217 22.9024 7.34555C22.8915 5.96117 22.1394 4.92561 20.9185 4.53318C19.5014 4.07536 17.9317 4.48958 17.1469 5.53604C16.4819 6.419 16.362 7.36735 16.7872 8.35931C17.2341 9.37307 18.0298 9.97261 19.1526 10.0707C19.5123 10.1034 19.872 10.0707 20.2318 10.1034C20.9948 10.147 21.518 10.692 21.4962 11.3679C21.4744 12.0437 20.9839 12.5125 20.2427 12.5561C17.9862 12.6978 16.0568 12.0764 14.8141 10.0707C13.5933 8.1522 13.6805 6.19008 14.8796 4.27157C14.9014 4.22796 14.8905 4.17346 14.9014 4.11896C15.3047 3.71563 15.6971 3.32321 16.1004 2.91989C17.354 2.14594 18.7166 1.85162 20.1991 1.93883C23.0659 2.10234 25.2243 4.19526 25.3442 7.06213C25.4096 8.67543 25.3769 10.2996 25.366 11.9238C25.366 12.2072 25.2897 12.4798 25.2134 12.9703C28.4945 10.8665 31.5575 10.8338 34.6206 12.8286C34.8277 12.5997 34.7187 12.338 34.7296 12.0873C34.7514 10.3214 34.6642 8.53372 34.795 6.76781C35.0239 3.48672 38.087 1.4047 41.597 2.03693C44.6492 2.58197 46.6004 5.62325 45.8156 8.61003C45.1288 11.2807 42.4037 13.0248 39.6676 12.5561C38.9918 12.4471 38.6103 12.0219 38.6103 11.3461C38.6103 10.6702 39.0136 10.2451 39.6785 10.147C40.06 10.0925 40.4525 10.1361 40.834 10.1034C42.371 9.98351 43.5156 8.75173 43.5156 7.24744C43.5156 5.76495 42.3492 4.53318 40.8122 4.41328C38.4577 4.23887 37.2041 5.40523 37.1932 7.79248C37.1932 9.66739 37.1932 11.5423 37.1932 13.4172C37.1823 13.9513 37.2695 14.4964 36.8226 14.9433C36.6263 15.1395 36.8226 15.3139 36.9098 15.4883C38.2832 18.3443 38.1524 21.0913 36.3102 23.6965C36.0813 24.0126 35.9941 24.2307 36.4192 24.4814C38.1851 25.5932 39.5804 27.0757 40.6923 28.8416C40.5615 29.125 40.2781 29.125 40.0382 29.1468C38.1306 29.4194 36.4628 30.1933 35.1657 31.6431C35.0348 31.7957 34.8713 31.9374 34.6969 32.0246C32.5386 32.3516 30.3585 32.417 28.1892 32.2971C27.2736 32.2535 26.3361 32.2753 25.4423 32.0355C25.1698 31.8938 24.9517 31.654 24.7446 31.4469C23.5347 30.1497 22.0195 29.4848 20.3081 29.1904C19.9811 29.1468 19.6213 29.2013 19.4033 28.8525Z" fill="#9A7863"/>
<path id="Vector_2" d="M37.5965 46.6969C38.2287 47.1111 38.85 47.5145 39.4932 47.9178C39.4278 49.7491 38.4576 51.1553 37.3457 52.4852C35.3618 54.8615 32.9964 56.8127 30.5219 58.6549C30.2603 58.8511 29.9878 58.971 29.6935 58.7421C26.6631 56.453 23.6981 54.0984 21.5834 50.8719C20.9948 49.978 20.635 49.0078 20.6132 47.9178C21.2346 47.5145 21.845 47.122 22.4773 46.7296C22.8043 46.7078 23.0659 46.8604 23.3384 47.0021C27.884 49.5202 32.4186 49.4766 36.9315 46.904C37.1277 46.795 37.3021 46.5552 37.5965 46.6969Z" fill="#785353"/>
<path id="Vector_3" d="M34.5116 31.9701C33.694 33.3545 33.0509 34.8043 32.8874 36.4503C32.7784 37.5186 32.9964 38.5214 33.1054 39.5679C32.2878 40.4944 31.176 40.7343 30.0532 40.7234C28.9304 40.7343 27.8077 40.4835 27.001 39.5679C27.6115 36.8427 27.0664 34.3138 25.584 31.981C28.5598 32.2318 31.5357 32.2427 34.5116 31.9701Z" fill="#785353"/>
<path id="Vector_4" d="M26.9902 39.557C27.7205 39.9167 28.4072 40.3418 29.2357 40.4727C30.6528 40.7125 31.8954 40.2546 33.0945 39.557C33.6395 41.3011 34.3154 42.958 35.4491 44.4187C36.0922 45.258 36.9206 45.9121 37.5965 46.6969C32.5604 49.8799 27.5134 49.8472 22.4555 46.7296C23.7527 45.4106 25.0825 44.1026 25.9001 42.3912C26.3579 41.4755 26.6304 40.5054 26.9902 39.557Z" fill="#9A7863"/>
<path id="Vector_5" d="M9.75183 47.6235C9.42481 47.2965 9.09779 46.9695 8.77077 46.6424C6.92856 44.4078 6.51434 41.8352 7.09207 39.0556C8.08403 34.183 12.1282 30.0516 17.1098 29.1251C17.9382 28.9725 18.8337 28.6683 19.6622 28.5811C19.6622 28.5811 27.5432 26.3117 29.1892 28.1757C29.8541 28.6444 28.4797 34.2568 28.4797 34.2568C28.4797 34.2568 27.8578 37.7366 27.3455 39.7096C26.626 42.6092 25.0563 44.9637 22.789 46.8604C22.0946 47.3311 20.816 47.9396 20.816 47.9396C18.8866 48.9752 16.8482 49.5529 14.6244 49.4439C12.7931 49.3349 11.1689 48.779 9.75183 47.6235Z" fill="#C8D4E4"/>
<path id="Vector_6" d="M50.7609 47.6235C51.0879 47.2965 51.4149 46.9695 51.7419 46.6424C53.5841 44.4078 53.9984 41.8352 53.4206 39.0556C52.4287 34.183 48.3845 30.0516 43.4029 29.1251C42.5745 28.9725 41.679 28.6683 40.8505 28.5811C40.8505 28.5811 32.9695 26.3117 31.3235 28.1757C30.6586 28.6444 32.033 34.2568 32.033 34.2568C32.033 34.2568 32.6549 37.7366 33.1672 39.7096C33.8867 42.6092 35.4564 44.9637 37.7237 46.8604C38.4181 47.3311 39.6967 47.9396 39.6967 47.9396C41.6261 48.9752 43.6645 49.5529 45.8883 49.4439C47.7196 49.3349 49.3438 48.779 50.7609 47.6235Z" fill="#C8D4E4"/>
</g>
<defs>
<clipPath id="clip0_1_765">
<rect width="60" height="60" fill="white"/>
</clipPath>
</defs>
</svg>
