<svg width="61" height="61" viewBox="0 0 61 61" fill="none" xmlns="http://www.w3.org/2000/svg">
<g id="icon/virus" clip-path="url(#clip0_1_752)">
<g id="cDN5J8.tif_1_">
<g id="Group">
<path id="Vector" d="M0.0171814 38.6574C0.0171814 38.6059 0.0171814 38.5372 0.0171814 38.4856C0.286646 37.5068 0.303487 36.4764 1.11188 35.6349C2.64446 34.0377 4.88438 33.6943 6.70327 34.4842C9.61685 35.7722 11.1831 34.4499 12.7157 33.076C13.1199 32.7154 13.103 32.2173 13.0862 31.7193C12.9852 29.1433 13.4062 26.6532 14.2988 24.2317C14.9725 22.4285 13.8946 20.7799 12.0083 20.694C10.7789 20.6425 9.7179 20.2646 8.85898 19.3029C7.44429 17.723 7.62955 15.2844 9.3137 13.9105C10.9136 12.6053 13.423 12.9488 14.5514 14.5974C14.7872 14.9581 14.9725 15.3359 15.1409 15.7309C15.4777 16.5208 16.0335 17.1219 16.7745 17.5169C17.6334 17.9806 18.4587 18.0321 19.267 17.328C20.2439 16.4693 21.3554 15.7652 22.5006 15.1813C23.1406 14.855 23.4774 14.3742 23.5785 13.6529C23.8816 11.5749 23.4943 9.84038 21.6922 8.51803C19.5365 6.97242 19.3849 3.77816 21.0859 1.70018C22.0964 0.480864 23.3764 0.206089 24.7742 0.0171814C24.9426 0.0171814 25.1111 0.0171814 25.2795 0.0171814C25.6163 0.188916 26.0037 0.154569 26.3405 0.154569C28.2436 0.240436 29.3551 1.40823 30.0456 3.02253C30.7361 4.65401 30.5845 6.30265 29.4562 7.71088C28.2267 9.23931 27.8731 10.4758 29.5909 12.7942C29.9446 13.2751 30.4161 13.464 30.9719 13.464C33.4813 13.464 35.7717 14.2539 37.978 15.3702C38.5674 15.6793 39.1064 15.6622 39.6621 15.3359C40.5042 14.855 41.2789 14.3055 42.0031 13.6529C42.6094 13.1205 42.8283 12.4164 42.9294 11.6092C43.2494 8.96453 45.7756 7.40175 48.0492 8.44933C49.4302 9.08475 50.2554 10.1838 50.2891 11.781C50.3397 13.4296 49.5986 14.7176 48.1503 15.25C46.1461 15.9713 45.1525 17.5341 44.2599 19.2686C43.8893 19.9727 43.8893 20.6081 44.3441 21.2779C45.1525 22.4628 45.6577 23.8024 46.1798 25.1247C46.6177 26.241 47.2745 26.6703 48.4366 26.6532C49.767 26.6188 50.8281 26.1036 51.6533 24.9358C52.9669 23.0639 55.2911 22.2911 57.312 22.9094C59.653 23.6306 60.8824 25.2965 60.9161 27.8381C60.9161 28.1988 60.9161 28.5594 60.9161 28.9029C60.9667 31.1526 59.9393 32.6982 57.9352 33.5054C55.8131 34.364 53.8595 34.0377 52.2091 32.3547C50.407 30.5 49.1944 31.1011 47.4934 31.8911C47.1398 32.0628 46.9882 32.4063 46.9377 32.8012C46.7524 34.1923 46.3987 35.549 45.944 36.8713C45.624 37.8331 45.8093 38.3483 46.6345 38.9322C47.4766 39.5332 48.4197 39.705 49.4134 39.7393C51.4343 39.7908 53.0006 41.4738 53.0006 43.5175C53.0006 45.1661 51.9564 46.5915 50.3733 47.1067C48.9081 47.5876 47.1734 47.0037 46.3145 45.6126C45.6577 44.5479 45.0514 43.4659 44.0072 42.7103C43.1988 42.1092 42.9462 42.0921 42.222 42.8134C41.1105 43.9124 39.9316 44.9257 38.5674 45.6813C37.7927 46.1106 37.4559 46.7461 37.3717 47.6047C37.1696 49.7514 37.7254 51.6233 39.3421 53.1002C40.521 54.165 41.1273 55.453 41.0768 57.1016C41.0263 58.6644 39.7463 60.8798 37.6075 60.8454C37.4896 60.8454 37.3885 60.8454 37.2875 60.9313C36.7822 60.9313 36.277 60.9313 35.7717 60.9313C32.6392 60.21 31.4266 57.8916 32.5887 54.7661C33.3971 52.585 32.9255 50.5586 31.9319 48.5664C31.7129 48.1371 31.3256 47.9654 30.8877 47.9825C29.4562 47.9997 28.0246 47.931 26.6268 47.6391C26.0542 47.5189 25.5995 47.8108 25.1953 48.2058C23.5111 49.8373 22.7869 51.8981 22.568 54.1822C22.5175 54.7489 22.4501 55.3156 22.3322 55.8823C21.9785 57.5825 20.1428 58.9392 18.526 58.7331C16.6566 58.5099 15.2419 56.9471 15.1746 55.1439C15.124 53.667 15.7303 52.585 16.8755 51.7264C18.9302 50.1979 19.8397 48.0684 19.8902 45.5268C19.907 44.8913 19.6712 44.3761 19.1828 43.9468C17.8692 42.8134 16.7577 41.491 15.8314 40.0141C15.3767 39.2928 14.8209 38.9837 13.9956 39.1898C13.7262 39.2584 13.4399 39.2585 13.1536 39.2413C11.2673 39.1211 9.93684 39.9454 9.04424 41.6284C8.30321 43.0194 7.09062 43.7922 5.57488 44.1014C2.72867 44.6681 0.252963 42.6588 0.185597 39.705C0.067706 39.3615 0.202438 39.0009 0.0171814 38.6574Z" fill="#F6BD57"/>
<path id="Vector_2" d="M22.6855 22.5144C24.4707 22.5315 25.8012 23.9054 25.7844 25.743C25.7844 27.529 24.3192 29.0403 22.5845 29.0403C20.8835 29.0403 19.4014 27.529 19.3846 25.8117C19.3846 24.0085 20.8835 22.4972 22.6855 22.5144Z" fill="#F4A34E"/>
<path id="Vector_3" d="M38.6007 26.4814C39.8807 26.4814 41.0596 27.7007 41.0764 29.0231C41.0933 30.3798 39.8639 31.6163 38.5502 31.5991C37.2534 31.5647 36.0914 30.3798 36.0745 29.0574C36.0577 27.7179 37.2703 26.4814 38.6007 26.4814Z" fill="#F4A34E"/>
<path id="Vector_4" d="M28.479 33.7458C28.479 34.8964 27.5696 35.8238 26.458 35.8238C25.3465 35.8238 24.336 34.8105 24.336 33.6943C24.336 32.5608 25.3128 31.6163 26.4917 31.6334C27.5527 31.6334 28.4622 32.5952 28.479 33.7458Z" fill="#F4A34E"/>
<path id="Vector_5" d="M33.6494 22.0335C33.6325 22.9781 32.7736 23.8024 31.8305 23.8024C30.8874 23.8024 30.0621 22.9437 30.079 21.982C30.0958 21.0203 30.921 20.1616 31.8473 20.1616C32.841 20.1616 33.683 21.0375 33.6494 22.0335Z" fill="#F4A34E"/>
<path id="Vector_6" d="M33.0431 42.2638C32.0157 42.2638 31.3421 41.5597 31.3421 40.4778C31.3421 39.413 32.0999 38.6574 33.1441 38.6745C34.0536 38.6917 34.8283 39.516 34.8451 40.4434C34.8788 41.4223 34.0367 42.2638 33.0431 42.2638Z" fill="#F4A34E"/>
<path id="Vector_7" d="M41.3122 4.56813C41.3122 5.92483 40.2344 7.0411 38.9207 7.00676C37.6408 6.97241 36.5798 5.89049 36.5798 4.58531C36.5798 3.24578 37.6913 2.12951 38.9881 2.14668C40.2849 2.16385 41.3122 3.24578 41.3122 4.56813Z" fill="#F6BD57"/>
<path id="Vector_8" d="M9.49859 8.24325C7.52813 8.22607 5.91135 6.57743 5.91135 4.56814C5.91135 2.55884 7.54497 0.893023 9.49859 0.910196C11.4522 0.910196 13.0858 2.57602 13.1027 4.58531C13.1195 6.56025 11.4522 8.26042 9.49859 8.24325Z" fill="#F6BD57"/>
<path id="Vector_9" d="M6.21451 51.2627C6.21451 49.906 7.29236 48.7897 8.606 48.824C9.88596 48.8412 10.947 49.9403 10.9638 51.2455C10.9807 52.6022 9.88596 53.6841 8.55548 53.667C7.225 53.6498 6.21451 52.6022 6.21451 51.2627Z" fill="#F6BD57"/>
<path id="Vector_10" d="M50.693 58.5957C48.773 58.5957 47.291 57.0673 47.291 55.1095C47.3078 53.1517 48.8067 51.6405 50.7267 51.6748C52.6129 51.692 54.0781 53.2033 54.0781 55.1267C54.1118 57.0673 52.6129 58.5957 50.693 58.5957Z" fill="#F6BD57"/>
</g>
</g>
</g>
<defs>
<clipPath id="clip0_1_752">
<rect width="61" height="61" fill="white"/>
</clipPath>
</defs>
</svg>
